<svg width="640" height="420" viewBox="0 0 640 420" fill="none" xmlns="http://www.w3.org/2000/svg">
  <rect width="640" height="420" rx="26" fill="#EAF0F3"/>
  <rect x="84" y="70" width="472" height="280" rx="24" fill="#F8FAFC" stroke="#C8D4DC" stroke-width="2"/>
  <rect x="118" y="108" width="220" height="16" rx="8" fill="#2A5368" fill-opacity="0.22"/>
  <rect x="118" y="136" width="176" height="12" rx="6" fill="#2A5368" fill-opacity="0.12"/>
  <rect x="118" y="160" width="404" height="10" rx="5" fill="#2A5368" fill-opacity="0.10"/>
  <rect x="118" y="182" width="404" height="10" rx="5" fill="#2A5368" fill-opacity="0.10"/>
  <rect x="118" y="204" width="318" height="10" rx="5" fill="#2A5368" fill-opacity="0.10"/>
  <rect x="118" y="242" width="150" height="72" rx="16" fill="#EDF4F7"/>
  <rect x="286" y="242" width="236" height="72" rx="16" fill="#E5EDF2"/>
  <path d="M456 106C456 83.9086 473.909 66 496 66C518.091 66 536 83.9086 536 106V121H456V106Z" fill="#27485D"/>
  <rect x="446" y="116" width="100" height="84" rx="18" fill="#1B2432"/>
  <circle cx="496" cy="154" r="13" fill="#D9E6EC"/>
  <rect x="492" y="154" width="8" height="23" rx="4" fill="#D9E6EC"/>
</svg>
